<?xml version="1.0" standalone="no"?>
<!DOCTYPE svg PUBLIC "-//W3C//DTD SVG 20010904//EN"
 "http://www.w3.org/TR/2001/REC-SVG-20010904/DTD/svg10.dtd">
<svg version="1.0" xmlns="http://www.w3.org/2000/svg"
 width="480.000000pt" height="480.000000pt" viewBox="0 0 480.000000 480.000000"
 preserveAspectRatio="xMidYMid meet">

<g transform="translate(0.000000,480.000000) scale(0.100000,-0.100000)"
fill="#000000" stroke="none">
<path d="M0 2400 l0 -2400 2400 0 2400 0 0 2400 0 2400 -2400 0 -2400 0 0
-2400z m1340 831 c0 -5 -12 -11 -27 -13 -35 -4 -41 -26 -8 -30 26 -3 35 -22
12 -24 -6 -1 -18 -2 -24 -3 -7 0 -13 -8 -13 -16 0 -10 10 -15 30 -15 17 0 30
-4 30 -10 0 -5 -18 -10 -40 -10 l-40 0 0 65 0 65 40 0 c22 0 40 -4 40 -9z
m152 -8 c10 -9 18 -30 18 -46 0 -43 -25 -67 -72 -67 l-38 0 0 65 0 65 37 0
c20 0 45 -7 55 -17z m98 -48 c0 -37 -4 -65 -10 -65 -6 0 -10 28 -10 65 0 37 4
65 10 65 6 0 10 -28 10 -65z m160 55 c0 -5 -9 -10 -20 -10 -18 0 -20 -7 -20
-55 0 -42 -3 -55 -15 -55 -12 0 -15 13 -15 55 0 48 -2 55 -20 55 -11 0 -20 5
-20 10 0 6 25 10 55 10 30 0 55 -4 55 -10z m70 -56 c0 -48 -3 -65 -12 -62 -13
5 -23 89 -14 114 13 35 26 9 26 -52z m112 26 c13 -22 26 -40 31 -40 4 0 7 18
7 40 0 22 5 40 10 40 6 0 10 -28 10 -65 0 -78 -17 -86 -51 -25 -26 45 -39 43
-39 -6 0 -19 -4 -34 -10 -34 -6 0 -10 28 -10 65 0 78 17 86 52 25z m217 27
c16 -20 3 -27 -25 -15 -17 8 -27 8 -39 -2 -32 -27 -9 -86 31 -78 22 4 31 28
10 28 -9 0 -16 5 -16 10 0 6 11 10 25 10 21 0 25 -5 25 -29 0 -17 -6 -31 -16
-35 -29 -11 -71 -6 -85 10 -20 24 -16 84 6 100 24 18 69 18 84 1z m248 -2 c8
-23 -2 -28 -25 -14 -27 17 -54 -4 -50 -39 4 -35 32 -51 59 -34 18 12 20 11 17
-5 -5 -29 -72 -30 -92 -1 -35 49 -7 108 50 108 22 0 37 -6 41 -15z m167 -1
c44 -43 21 -114 -36 -114 -60 0 -88 57 -52 108 18 26 65 30 88 6z m133 -26
l21 -43 17 43 c12 28 23 42 36 42 17 0 19 -8 19 -65 0 -51 -3 -65 -15 -65 -10
0 -15 11 -16 38 l-1 37 -16 -37 c-10 -21 -21 -38 -25 -38 -4 0 -16 19 -27 43
l-19 42 0 -42 c-1 -32 -5 -43 -16 -43 -13 0 -15 12 -14 65 2 53 5 65 18 65 10
0 26 -18 38 -42z m243 27 c19 -22 8 -49 -27 -65 -18 -8 -33 -23 -33 -32 0 -10
-7 -18 -15 -18 -12 0 -15 14 -15 65 l0 65 39 0 c21 0 44 -6 51 -15z m146 -49
c28 -70 28 -66 10 -66 -8 0 -16 7 -20 15 -7 20 -53 19 -64 -1 -5 -9 -14 -15
-19 -13 -16 7 37 131 54 127 8 -2 26 -30 39 -62z m131 22 l28 -42 3 42 c5 67
22 49 22 -23 0 -36 -4 -65 -10 -65 -5 0 -22 19 -37 42 l-28 42 -3 -43 c-4 -58
-26 -48 -30 14 -6 86 13 98 55 33z m154 15 l10 -27 24 29 c30 39 42 27 16 -16
-12 -19 -21 -46 -21 -61 0 -18 -5 -28 -15 -28 -9 0 -15 9 -15 25 0 14 -9 44
-20 65 -17 34 -18 40 -5 40 9 0 20 -12 26 -27z m-190 -284 c116 -25 184 -85
222 -196 13 -39 13 -40 -10 -37 -13 1 -23 -1 -23 -4 0 -4 -22 -8 -49 -9 -46
-3 -50 -1 -69 31 -27 46 -80 84 -122 87 -69 4 -88 -1 -130 -38 -35 -32 -43
-45 -47 -85 -3 -27 -10 -46 -17 -45 -16 3 -20 -82 -4 -102 7 -9 22 -33 33 -55
28 -54 78 -86 138 -86 82 0 137 43 137 107 l0 33 71 0 c61 0 73 -3 90 -22 19
-24 25 -43 10 -34 -5 3 -12 -6 -16 -22 -3 -15 -18 -47 -33 -72 -14 -25 -27
-51 -28 -58 -2 -8 -6 -17 -10 -20 -4 -4 -4 1 -1 11 5 13 3 17 -5 14 -7 -2 -13
-10 -13 -18 -1 -20 -14 -39 -28 -39 -6 0 -2 7 9 15 10 8 17 15 14 15 -13 0
-100 -37 -95 -41 2 -3 -39 -4 -93 -3 -77 1 -107 6 -144 24 -78 36 -162 136
-170 202 -2 15 -12 36 -22 46 -12 14 -16 33 -14 63 3 40 6 44 31 47 29 4 36
16 13 25 -17 7 -6 69 24 126 56 110 208 171 351 140z m-2078 -29 c61 -29 101
-69 127 -127 23 -52 24 -63 9 -63 -5 0 -8 4 -5 8 5 9 -87 -1 -115 -13 -11 -4
-25 6 -44 31 -32 42 -78 64 -134 64 -50 0 -97 -19 -79 -32 9 -6 6 -7 -8 -4
-27 8 -52 -19 -69 -77 -12 -41 -12 -46 3 -51 9 -2 2 -3 -15 -1 l-33 3 0 -53
c0 -34 5 -57 13 -62 7 -4 23 -25 36 -45 32 -54 75 -86 124 -93 86 -13 167 31
167 91 0 22 -4 24 -49 24 -28 0 -53 5 -56 10 -4 6 -11 8 -16 5 -5 -4 -9 16 -9
44 l0 51 140 0 c77 0 141 -1 142 -2 6 -9 12 -345 6 -341 -5 2 -8 -2 -9 -9 0
-10 -2 -10 -6 0 -6 15 -40 16 -45 0 -3 -7 -13 -3 -29 13 -13 13 -27 23 -31 22
-4 -2 -5 4 -2 12 4 9 -16 2 -52 -17 -53 -29 -67 -32 -139 -31 -98 1 -154 23
-211 82 -46 49 -84 116 -84 149 0 12 -7 25 -15 28 -11 5 -15 22 -15 65 0 32 3
58 8 58 24 -4 42 3 42 17 0 8 -4 12 -10 9 -13 -8 -13 16 1 70 20 79 95 149
194 182 63 21 209 12 268 -17z m401 4 c3 -9 6 -65 6 -125 0 -66 4 -109 10
-109 6 0 10 -9 10 -21 0 -11 -4 -17 -10 -14 -12 7 -24 -38 -17 -65 3 -11 0
-20 -6 -20 -8 0 -7 -4 1 -12 7 -7 12 -38 12 -69 0 -70 -2 -69 171 -69 141 0
139 1 139 -71 0 -24 5 -39 13 -39 7 0 6 -4 -4 -10 -18 -10 -413 -14 -446 -4
-23 6 -23 8 -23 185 0 152 2 179 15 179 8 0 15 5 15 10 0 6 -7 10 -15 10 -13
0 -15 21 -15 130 l0 130 69 0 c54 0 70 -4 75 -16z m550 -6 c10 -47 12 -267 2
-261 -5 4 -7 -6 -3 -24 3 -17 1 -35 -6 -42 -7 -7 -7 -11 -1 -11 13 0 13 -6 13
-152 0 -90 3 -118 13 -118 36 -1 -23 -18 -67 -20 -100 -3 -95 -13 -95 191 0
152 2 179 15 179 8 0 15 5 15 10 0 6 -7 13 -15 16 -12 5 -15 29 -15 130 l0
124 70 0 c64 0 70 -2 74 -22z m686 2 c11 -11 16 -20 10 -20 -5 0 -10 -20 -10
-45 l0 -45 -104 0 -104 0 -1 -121 c-1 -66 2 -125 6 -131 7 -12 5 -242 -3 -262
-4 -11 -82 -11 -131 0 l-23 4 0 239 c0 132 -3 246 -6 255 -5 13 -24 16 -98 16
-50 0 -96 4 -103 8 -13 8 -26 99 -17 114 3 4 131 8 285 8 266 0 280 -1 299
-20z m920 5 c0 -8 3 -15 8 -15 4 0 6 -44 4 -98 -3 -94 -2 -98 20 -110 14 -7
64 -11 133 -9 l110 2 3 123 3 122 69 0 c56 0 70 -3 70 -15 0 -8 3 -15 8 -15 4
0 7 -58 7 -128 0 -118 -2 -128 -17 -124 -15 4 -18 -3 -18 -44 0 -39 4 -52 21
-62 16 -11 18 -16 9 -28 -7 -8 -9 -14 -4 -14 12 0 11 -203 -1 -212 -12 -9
-107 -10 -129 -2 -13 5 -16 26 -16 123 0 64 -4 121 -8 127 -9 14 -200 25 -208
12 -3 -5 -11 -4 -19 2 -7 6 -19 8 -26 5 -11 -4 -13 -30 -9 -134 3 -80 1 -132
-5 -137 -14 -12 -107 -9 -133 5 -21 11 -21 16 -22 319 0 170 3 311 6 315 4 4
38 7 76 7 54 0 68 -3 68 -15z m-1583 -97 c-3 -7 -5 -2 -5 12 0 14 2 19 5 13 2
-7 2 -19 0 -25z m926 -71 c-15 -19 -30 -32 -32 -30 -5 3 49 63 57 63 2 0 -9
-15 -25 -33z m-36 -84 c-3 -10 -5 -4 -5 12 0 17 2 24 5 18 2 -7 2 -21 0 -30z
m-420 -35 c-3 -8 -6 -5 -6 6 -1 11 2 17 5 13 3 -3 4 -12 1 -19z m837 -247
c-10 -17 -22 -31 -26 -31 -5 0 2 15 14 34 28 42 37 39 12 -3z m-2127 -43 c-2
-13 -4 -5 -4 17 -1 22 1 32 4 23 2 -10 2 -28 0 -40z m-167 -53 c-7 -8 -20 -15
-29 -15 -11 0 -8 5 9 14 33 19 35 19 20 1z m-83 -31 c-3 -3 -12 -4 -19 -1 -8
3 -5 6 6 6 11 1 17 -2 13 -5z m1424 -170 c50 -34 87 -97 70 -118 -7 -8 -20
-12 -30 -9 -10 3 -22 0 -26 -7 -4 -7 -20 3 -44 29 -34 37 -43 41 -85 41 -29 0
-45 -4 -41 -10 3 -6 -1 -7 -9 -4 -11 4 -16 0 -16 -11 0 -9 -4 -14 -9 -11 -10
6 -33 -42 -26 -54 3 -5 1 -11 -5 -15 -27 -17 2 -135 43 -177 28 -27 35 -30 76
-25 73 8 120 87 52 87 -36 0 -51 17 -51 57 l0 33 85 0 c61 0 87 -4 91 -13 2
-7 6 -66 7 -130 l2 -117 -25 0 c-14 0 -32 9 -40 19 -14 20 -36 19 -24 -1 4 -6
3 -8 -3 -5 -6 4 -19 0 -29 -8 -23 -17 -120 -20 -161 -4 -139 52 -184 318 -73
429 46 46 89 60 167 56 48 -3 71 -10 104 -32z m808 19 c63 -20 96 -52 129
-122 22 -47 24 -63 19 -131 -4 -58 -11 -87 -29 -116 -14 -21 -23 -45 -20 -53
3 -9 0 -11 -7 -7 -15 10 -43 -13 -34 -27 3 -6 1 -7 -6 -3 -6 4 -18 3 -25 -3
-25 -21 -107 -30 -157 -17 -107 28 -169 117 -169 241 0 82 12 125 47 173 56
76 147 99 252 65z m-2347 -10 c9 -10 23 -45 32 -78 17 -60 28 -94 88 -281 l33
-101 -40 -1 c-50 -3 -59 3 -78 51 l-16 37 -80 0 -80 0 -10 -37 c-6 -20 -8 -40
-5 -45 6 -9 -60 -11 -93 -2 -26 7 -26 9 17 144 25 77 84 270 96 313 4 14 17
17 63 17 43 0 62 -5 73 -17z m379 -98 c103 -169 104 -170 114 -168 6 2 11 52
11 115 3 185 -2 168 43 168 25 0 41 -5 44 -15 3 -7 7 -114 8 -237 l1 -223 -53
0 -53 0 -78 128 c-114 188 -110 188 -106 13 l3 -146 -40 0 c-23 0 -46 5 -53
12 -9 9 -12 76 -12 241 l0 228 52 -3 52 -3 67 -110z m559 87 c24 -13 50 -31
58 -40 18 -24 53 -102 48 -110 -2 -4 -1 -26 4 -49 4 -23 5 -45 2 -48 -11 -11
-40 -110 -35 -119 4 -5 1 -6 -7 -1 -10 6 -12 4 -7 -8 3 -9 1 -19 -5 -23 -7 -5
-8 -2 -3 6 5 8 3 11 -6 8 -8 -3 -13 -11 -11 -17 1 -6 -5 -11 -14 -11 -8 0 -12
-5 -9 -10 4 -6 3 -10 -2 -8 -4 1 -26 -4 -48 -10 -53 -16 -197 -16 -213 0 -9 9
-12 76 -12 241 l0 229 108 -4 c89 -2 115 -7 152 -26z m867 16 c4 -7 10 -92 13
-188 l5 -175 92 -3 c102 -3 94 2 106 -74 l4 -28 -146 0 c-101 0 -151 4 -159
12 -13 13 -18 449 -5 461 11 12 82 7 90 -5z m831 -15 c9 -26 33 -110 62 -225
8 -29 17 -45 24 -42 7 3 28 70 46 149 l33 145 57 0 c68 0 62 8 110 -172 19
-71 37 -128 40 -128 18 1 29 30 60 155 l35 140 45 0 45 0 0 -52 c0 -28 -3 -49
-7 -47 -9 6 -40 -144 -32 -157 4 -7 3 -9 -3 -6 -13 8 -27 -58 -17 -75 5 -7 3
-8 -6 -3 -10 6 -11 1 -6 -21 4 -18 3 -24 -2 -16 -6 10 -11 1 -16 -28 -3 -23
-4 -45 -1 -50 3 -5 -6 -12 -20 -16 -37 -9 -126 1 -135 16 -4 7 -20 60 -35 119
-23 91 -54 181 -55 159 0 -13 -71 -281 -76 -290 -9 -14 -110 -9 -123 5 -10 13
-34 86 -66 202 -46 168 -65 241 -65 253 0 8 16 12 49 12 44 0 50 -3 59 -27z
m-157 -360 c-12 -20 -14 -14 -5 12 4 9 9 14 11 11 3 -2 0 -13 -6 -23z"/>
<path d="M1430 3175 c0 -32 4 -45 14 -45 18 0 46 27 46 45 0 18 -28 45 -46 45
-10 0 -14 -13 -14 -45z"/>
<path d="M2504 3212 c-17 -11 -22 -35 -13 -59 15 -40 69 -23 69 22 0 35 -30
55 -56 37z"/>
<path d="M2877 3206 c-8 -19 15 -37 32 -26 17 10 7 40 -13 40 -7 0 -16 -6 -19
-14z"/>
<path d="M3036 3184 c-9 -22 -8 -24 9 -24 8 0 15 6 15 14 0 22 -17 28 -24 10z"/>
<path d="M3098 1990 c-38 -30 -51 -71 -46 -151 4 -68 6 -73 42 -106 34 -32 42
-35 78 -29 22 4 50 13 63 22 66 43 68 204 4 259 -39 32 -104 34 -141 5z"/>
<path d="M802 1887 c-15 -54 -18 -74 -9 -79 16 -10 75 -10 81 1 7 11 -25 123
-39 137 -9 9 -17 -6 -33 -59z"/>
<path d="M1670 1871 c0 -152 0 -151 63 -151 66 1 97 49 97 150 0 69 -2 74 -34
106 -29 29 -41 34 -80 34 l-46 0 0 -139z"/>
</g>
</svg>
